<svg width="44" height="47" viewBox="0 0 44 47" fill="none" xmlns="http://www.w3.org/2000/svg">
<path fill-rule="evenodd" clip-rule="evenodd" d="M42.219 13.8408H1.79001C1.30183 13.8408 0.849805 14.0397 0.524348 14.3652C0.198891 14.6906 0 15.1336 0 15.6308V44.5061C0 44.9943 0.198891 45.4463 0.524348 45.7718C0.849805 46.0972 1.29279 46.2961 1.79001 46.2961H42.219C42.7072 46.2961 43.1592 46.0972 43.4757 45.7718C43.8011 45.4463 44 45.0033 44 44.5061V15.6308C44 15.1426 43.8011 14.6906 43.4757 14.3652C43.1502 14.0397 42.7072 13.8408 42.219 13.8408ZM22.8453 32.6179V41.8934C22.8453 42.3545 22.4656 42.7342 22.0045 42.7342C21.5435 42.7342 21.1638 42.3545 21.1638 41.8934V32.6179C20.3049 32.2834 19.6992 31.4517 19.6992 30.4753C19.6992 29.2006 20.7298 28.17 22.0045 28.17C23.2792 28.17 24.3098 29.2006 24.3098 30.4753C24.3098 31.4517 23.7041 32.2834 22.8453 32.6179Z" fill="#0B7572"/>
<path fill-rule="evenodd" clip-rule="evenodd" d="M39.9498 17.4029C39.8052 12.6657 37.8253 8.38956 34.6973 5.26156C31.4518 2.01603 26.9586 0 22.0045 0C17.0503 0 12.5572 2.00699 9.31163 5.26156C6.18362 8.38956 4.20376 12.6657 4.05911 17.4029H39.9498ZM36.1438 14.1031C35.4838 11.6622 34.191 9.42018 32.3648 7.60304C29.6075 4.8457 25.9099 3.30881 22.0045 3.30881C18.099 3.30881 14.4014 4.8457 11.6441 7.60304C9.8179 9.42922 8.52511 11.6622 7.86515 14.1031H36.1438Z" fill="#0B7572"/>
</svg>
